<?xml version="1.0" encoding="utf-8"?>
<!-- Generator: Adobe Illustrator 24.3.0, SVG Export Plug-In . SVG Version: 6.00 Build 0)  -->
<svg version="1.0" id="katman_1" xmlns="http://www.w3.org/2000/svg" xmlns:xlink="http://www.w3.org/1999/xlink" x="0px" y="0px"
	 viewBox="0 0 2773.33 1927.11" style="enable-background:new 0 0 2773.33 1927.11;" xml:space="preserve">
<style type="text/css">
	.st0{fill-rule:evenodd;clip-rule:evenodd;fill:#754FFE;}
	.st1{fill:none;stroke:#754FFE;stroke-width:25.0267;stroke-miterlimit:3.7916;}
	.st2{fill:#754FFE;stroke:#754FFE;stroke-width:1.2512;stroke-miterlimit:3.7916;}
	.st3{fill:#754FFE;}
	.st4{fill:#1E293B;}
</style>
<path class="st0" d="M764.66,780.55c31.08,39.6,16.66,115.4,2.4,151.7l0.4,0.13l-0.29,0.01l-34.59-2.3c0-0.06,0-0.14,0-0.18
	c6.74-78.29-1.02-109.64-8.57-114.95c-90.48,65.4-171.3,44.61-196.29,38.19c-6.8-1.75-9.46-2.43-7.05-0.02
	c7.34,7.34,24.05,16.16,35.97,22.44h0l0.01,0c2.7,1.42,5.15,2.72,7.19,3.83c-98.22,1.14-137.71-46.16-149.32-60.07
	c-1.18-1.42-2.08-2.49-2.71-3.13c-5.67-5.67-37.54-25.03-47.55,11.89c-9.7,35.76-3.56,77.69-0.31,99.83
	c0.28,1.92,0.31,1.96,0.31,2.59l-31.91,1.87l-0.08,0c-42.42-98.11-10.53-153.1,18.23-173.74c0-48.17,58.81-95.1,133.27-78.21
	c95.38,27.19,124.4,18.18,158.54,7.58c13.78-4.28,28.4-8.82,48.55-11.34c92.53-11.57,123.67,49.22,127.63,80.71
	C802.95,748.39,776.13,768.66,764.66,780.55L764.66,780.55z M528.99,706.59c-23.99-8.34-85.78-17.18-118.25,16.27
	c-7.18,7.4-15.64,21.27-15.64,21.27s-14.39,26.28-25.65,15.01c-11.26-11.26,15.02-45.05,35.66-55.06
	C425.76,694.07,477.06,676.55,528.99,706.59L528.99,706.59z"/>
<g>
	<path class="st1" d="M484.38,941.78H346.74c-17.28,0-31.28,14.01-31.28,31.28v63.82c0,17.28,14.01,31.28,31.28,31.28h137.65
		c17.28,0,31.28-14.01,31.28-31.28v-63.82C515.67,955.79,501.66,941.78,484.38,941.78L484.38,941.78z"/>
	<path class="st2" d="M301.67,963.68h-8.76c-3.8,0-6.88,3.08-6.88,6.88c0,0,0,0,0,0v20.02c0,3.8,3.08,6.88,6.88,6.88c0,0,0,0,0,0
		h8.76c3.8,0,6.88-3.08,6.88-6.88c0,0,0,0,0,0v-20.02C308.56,966.76,305.48,963.68,301.67,963.68L301.67,963.68z"/>
	<path class="st1" d="M615.76,941.78h137.64c17.28,0,31.28,14.01,31.28,31.28v63.82c0,17.28-14.01,31.28-31.28,31.28H615.76
		c-17.28,0-31.28-14.01-31.28-31.28v-63.82C584.48,955.79,598.49,941.78,615.76,941.78L615.76,941.78z"/>
</g>
<g>
	<path class="st2" d="M798.45,963.68h8.76c3.8,0,6.88,3.08,6.88,6.88c0,0,0,0,0,0v20.02c0,3.8-3.08,6.88-6.88,6.88h-8.76
		c-3.8,0-6.88-3.08-6.88-6.88c0,0,0,0,0,0v-20.02C791.57,966.76,794.65,963.68,798.45,963.68L798.45,963.68z M528.16,982.45h43.8
		c3.8,0,6.88,3.08,6.88,6.88c0,0,0,0,0,0v20.02c0,3.8-3.08,6.88-6.88,6.88h-43.8c-3.8,0-6.88-3.08-6.88-6.88v-20.02
		C521.28,985.53,524.36,982.45,528.16,982.45C528.16,982.45,528.16,982.45,528.16,982.45z"/>
	<path class="st3" d="M481.53,998.91c0,6.22-3.36,11.26-7.51,11.26c-4.15,0-7.51-5.04-7.51-11.26c0-6.22,3.36-11.26,7.51-11.26
		C478.17,987.64,481.53,992.69,481.53,998.91z M620.43,998.91c0,6.22,3.36,11.26,7.51,11.26c4.15,0,7.51-5.04,7.51-11.26
		c0-6.22-3.36-11.26-7.51-11.26C623.79,987.64,620.43,992.69,620.43,998.91z M567.26,1072.11c-12.51,10.01-29.41,5.01-33.79,0
		c1.25,6.26,6.01,15.02,17.52,15.02C562.5,1087.12,566.63,1077.11,567.26,1072.11L567.26,1072.11z"/>
	<path class="st0" d="M524.92,1117.7c0.52-2.36,2.85-3.85,5.22-3.33c0,0,0,0,0,0l44.21,9.73c2.36,0.52,3.85,2.86,3.33,5.22
		c0,0,0,0,0,0c-0.52,2.36-2.85,3.85-5.21,3.34c0,0,0,0,0,0l-44.21-9.73C525.89,1122.4,524.4,1120.07,524.92,1117.7
		C524.92,1117.7,524.92,1117.7,524.92,1117.7z"/>
	<path class="st3" d="M550.37,1221.64c-87.09,1-150.99-79.25-172.06-119.5c-3.13-5.98-5.63-6.88-7.51-5.63c-3,2-0.83,6.05,0,8.13
		c10.51,24.53,24.82,45.26,30.66,52.56c-20.52,34.04-27.32,67.99-28.15,80.71c34.04-33.54,68.41-31.91,81.34-26.9
		c101.36,52.56,157.67,15.64,189.57,0c25.53-12.51,65.28,11.89,81.96,25.65c-2-31.03-18.77-65.07-26.9-78.21
		c13.14-17.52,23.77-38.79,29.41-49.43c4.5-8.51,3.13-11.89,1.88-12.51c-3-1.5-6.67,3.13-8.13,5.63
		C713.04,1117.78,659.23,1220.39,550.37,1221.64L550.37,1221.64z"/>
</g>
<path class="st4" d="M1183.12,888.43h86.37c-10.99-79.5-81.07-135.45-171.96-135.45c-106.2,0-188.06,76.56-188.06,206.91
	c0,127.21,76.56,206.12,189.83,206.12c101.49,0,173.93-64.19,173.93-170v-50.65h-168.24v64h86.38
	c-1.18,49.86-35.14,81.47-91.67,81.47c-63.8,0-104.04-47.7-104.04-131.72c0-83.63,41.81-130.94,103.26-130.94
	C1142.68,828.16,1172.32,850.74,1183.12,888.43L1183.12,888.43z M1450.81,1166.4c74.59,0,124.85-36.32,136.62-92.26l-77.34-5.11
	c-8.45,22.97-30.04,34.94-57.91,34.94c-41.82,0-68.32-27.68-68.32-72.63v-0.2h205.34v-22.97c0-102.47-62.04-153.12-141.73-153.12
	c-88.73,0-146.25,63.01-146.25,156.06C1301.22,1106.72,1357.95,1166.4,1450.81,1166.4L1450.81,1166.4z M1383.87,979.32
	c1.76-34.35,27.88-61.84,64.98-61.84c36.31,0,61.43,25.91,61.63,61.84H1383.87z M1759.07,1166.4c74.6,0,124.85-36.32,136.63-92.26
	l-77.34-5.11c-8.45,22.97-30.04,34.94-57.92,34.94c-41.81,0-68.32-27.68-68.32-72.63v-0.2h205.34v-22.97
	c0-102.47-62.03-153.12-141.73-153.12c-88.72,0-146.24,63.01-146.24,156.06C1609.49,1106.72,1666.22,1166.4,1759.07,1166.4
	L1759.07,1166.4z M1692.13,979.32c1.77-34.35,27.88-61.84,64.98-61.84c36.31,0,61.44,25.91,61.64,61.84H1692.13z M1929.92,1160.51
	h83.62v-95.8l22.58-25.72l82.25,121.51h97.96l-117.59-170.98l111.89-130.54h-95.99l-96.58,114.45h-4.51V758.47h-83.62
	L1929.92,1160.51z M2480.43,944.96c-7.46-55.55-52.21-89.91-128.38-89.91c-77.13,0-127.99,35.73-127.79,93.83
	c-0.2,45.15,28.27,74.4,87.16,86.18l52.22,10.41c26.3,5.3,38.28,14.92,38.67,30.03c-0.4,17.86-19.84,30.62-49.08,30.62
	c-29.83,0-49.67-12.76-54.76-37.3l-82.26,4.32c7.85,57.71,56.92,93.25,136.82,93.25c78.13,0,134.07-39.85,134.27-99.33
	c-0.2-43.58-28.66-69.69-87.16-81.66l-54.57-10.99c-28.08-6.08-38.48-15.7-38.28-30.23c-0.2-18.06,20.21-29.84,46.13-29.84
	c29.04,0,46.31,15.9,50.44,35.34L2480.43,944.96z"/>
</svg>
